<svg width="24" height="25" viewBox="0 0 24 25" fill="none" xmlns="http://www.w3.org/2000/svg">
<mask id="mask0_10053_13" style="mask-type:alpha" maskUnits="userSpaceOnUse" x="0" y="0" width="24" height="25">
<rect y="0.5" width="24" height="24" fill="#D9D9D9"/>
</mask>
<g mask="url(#mask0_10053_13)">
<path d="M3 17.5H21C21.2833 17.5 21.5208 17.5958 21.7125 17.7875C21.9042 17.9792 22 18.2167 22 18.5C22 18.7833 21.9042 19.0208 21.7125 19.2125C21.5208 19.4042 21.2833 19.5 21 19.5H3C2.71667 19.5 2.47917 19.4042 2.2875 19.2125C2.09583 19.0208 2 18.7833 2 18.5C2 18.2167 2.09583 17.9792 2.2875 17.7875C2.47917 17.5958 2.71667 17.5 3 17.5ZM4 11.95L3.525 12.8C3.425 12.9833 3.275 13.1 3.075 13.15C2.875 13.2 2.68333 13.175 2.5 13.075C2.31667 12.975 2.2 12.825 2.15 12.625C2.1 12.425 2.125 12.2333 2.225 12.05L2.7 11.2H1.75C1.53333 11.2 1.35417 11.1292 1.2125 10.9875C1.07083 10.8458 1 10.6667 1 10.45C1 10.2333 1.07083 10.0542 1.2125 9.91249C1.35417 9.77083 1.53333 9.69999 1.75 9.69999H2.7L2.225 8.89999C2.125 8.71666 2.1 8.52499 2.15 8.32499C2.2 8.12499 2.31667 7.97499 2.5 7.87499C2.68333 7.77499 2.875 7.74999 3.075 7.79999C3.275 7.84999 3.425 7.96666 3.525 8.14999L4 8.94999L4.475 8.14999C4.575 7.96666 4.725 7.84999 4.925 7.79999C5.125 7.74999 5.31667 7.77499 5.5 7.87499C5.68333 7.97499 5.8 8.12499 5.85 8.32499C5.9 8.52499 5.875 8.71666 5.775 8.89999L5.3 9.69999H6.25C6.46667 9.69999 6.64583 9.77083 6.7875 9.91249C6.92917 10.0542 7 10.2333 7 10.45C7 10.6667 6.92917 10.8458 6.7875 10.9875C6.64583 11.1292 6.46667 11.2 6.25 11.2H5.3L5.775 12.05C5.875 12.2333 5.9 12.425 5.85 12.625C5.8 12.825 5.68333 12.975 5.5 13.075C5.31667 13.175 5.125 13.2 4.925 13.15C4.725 13.1 4.575 12.9833 4.475 12.8L4 11.95ZM12 11.95L11.525 12.8C11.425 12.9833 11.275 13.1 11.075 13.15C10.875 13.2 10.6833 13.175 10.5 13.075C10.3167 12.975 10.2 12.825 10.15 12.625C10.1 12.425 10.125 12.2333 10.225 12.05L10.7 11.2H9.75C9.53333 11.2 9.35417 11.1292 9.2125 10.9875C9.07083 10.8458 9 10.6667 9 10.45C9 10.2333 9.07083 10.0542 9.2125 9.91249C9.35417 9.77083 9.53333 9.69999 9.75 9.69999H10.7L10.225 8.89999C10.125 8.71666 10.1 8.52499 10.15 8.32499C10.2 8.12499 10.3167 7.97499 10.5 7.87499C10.6833 7.77499 10.875 7.74999 11.075 7.79999C11.275 7.84999 11.425 7.96666 11.525 8.14999L12 8.94999L12.475 8.14999C12.575 7.96666 12.725 7.84999 12.925 7.79999C13.125 7.74999 13.3167 7.77499 13.5 7.87499C13.6833 7.97499 13.8 8.12499 13.85 8.32499C13.9 8.52499 13.875 8.71666 13.775 8.89999L13.3 9.69999H14.25C14.4667 9.69999 14.6458 9.77083 14.7875 9.91249C14.9292 10.0542 15 10.2333 15 10.45C15 10.6667 14.9292 10.8458 14.7875 10.9875C14.6458 11.1292 14.4667 11.2 14.25 11.2H13.3L13.775 12.05C13.875 12.2333 13.9 12.425 13.85 12.625C13.8 12.825 13.6833 12.975 13.5 13.075C13.3167 13.175 13.125 13.2 12.925 13.15C12.725 13.1 12.575 12.9833 12.475 12.8L12 11.95ZM20 11.95L19.525 12.8C19.425 12.9833 19.275 13.1 19.075 13.15C18.875 13.2 18.6833 13.175 18.5 13.075C18.3167 12.975 18.2 12.825 18.15 12.625C18.1 12.425 18.125 12.2333 18.225 12.05L18.7 11.2H17.75C17.5333 11.2 17.3542 11.1292 17.2125 10.9875C17.0708 10.8458 17 10.6667 17 10.45C17 10.2333 17.0708 10.0542 17.2125 9.91249C17.3542 9.77083 17.5333 9.69999 17.75 9.69999H18.7L18.225 8.89999C18.125 8.71666 18.1 8.52499 18.15 8.32499C18.2 8.12499 18.3167 7.97499 18.5 7.87499C18.6833 7.77499 18.875 7.74999 19.075 7.79999C19.275 7.84999 19.425 7.96666 19.525 8.14999L20 8.94999L20.475 8.14999C20.575 7.96666 20.725 7.84999 20.925 7.79999C21.125 7.74999 21.3167 7.77499 21.5 7.87499C21.6833 7.97499 21.8 8.12499 21.85 8.32499C21.9 8.52499 21.875 8.71666 21.775 8.89999L21.3 9.69999H22.25C22.4667 9.69999 22.6458 9.77083 22.7875 9.91249C22.9292 10.0542 23 10.2333 23 10.45C23 10.6667 22.9292 10.8458 22.7875 10.9875C22.6458 11.1292 22.4667 11.2 22.25 11.2H21.3L21.775 12.05C21.875 12.2333 21.9 12.425 21.85 12.625C21.8 12.825 21.6833 12.975 21.5 13.075C21.3167 13.175 21.125 13.2 20.925 13.15C20.725 13.1 20.575 12.9833 20.475 12.8L20 11.95Z" fill="#2E3EDF"/>
</g>
</svg>
